<?xml version="1.0" standalone="no"?>
<!DOCTYPE svg PUBLIC "-//W3C//DTD SVG 20010904//EN"
 "http://www.w3.org/TR/2001/REC-SVG-20010904/DTD/svg10.dtd">
<svg version="1.0" xmlns="http://www.w3.org/2000/svg"
 width="286.000000pt" height="286.000000pt" viewBox="0 0 286.000000 286.000000"
 preserveAspectRatio="xMidYMid meet">
<metadata>
Created by potrace 1.14, written by Peter Selinger 2001-2017
</metadata>
<g transform="translate(0.000000,286.000000) scale(0.100000,-0.100000)"
fill="#000000" stroke="none">
<path d="M1295 2700 c-166 -22 -364 -88 -502 -168 -342 -200 -568 -518 -648
-912 -13 -61 -25 -95 -46 -122 -44 -54 -80 -141 -92 -219 -28 -179 58 -372
197 -445 31 -16 56 -32 56 -35 0 -22 114 -174 186 -249 183 -190 421 -313 717
-372 146 -29 413 -31 557 -4 203 37 432 106 557 168 87 43 165 119 189 184 15
43 26 55 87 94 202 131 306 345 307 632 1 403 -140 770 -358 929 -54 39 -63
51 -82 105 -61 179 -177 269 -435 339 -253 69 -514 97 -690 75z m305 -40 c200
-24 461 -90 564 -142 78 -39 159 -118 192 -185 15 -29 25 -56 22 -58 -3 -3
-30 6 -60 20 -140 64 -392 92 -591 66 -176 -24 -370 -98 -506 -194 l-64 -45
-46 33 c-112 79 -260 137 -423 164 l-98 17 69 54 c266 209 617 309 941 270z
m-836 -400 c95 -24 195 -64 266 -106 103 -61 100 -53 40 -115 -132 -137 -205
-288 -246 -507 l-5 -23 -31 26 c-81 68 -184 95 -368 95 -109 0 -133 -4 -183
-24 l-58 -24 7 37 c37 203 148 431 294 600 l63 73 74 -6 c40 -4 107 -15 147
-26z m-286 -699 c155 -79 236 -277 188 -457 -29 -111 -95 -197 -188 -246 -61
-32 -175 -32 -236 0 -218 115 -270 435 -101 626 87 100 229 132 337 77z m207
-15 c71 -32 120 -78 148 -139 98 -209 33 -413 -165 -512 -96 -47 -108 -45 -60
13 157 187 146 462 -23 627 l-53 52 52 -9 c28 -5 74 -20 101 -32z m279 -745
c110 -170 268 -268 517 -323 92 -20 132 -22 359 -23 280 0 357 10 510 64 44
15 80 25 80 21 0 -22 -69 -96 -121 -130 -106 -69 -348 -149 -578 -192 -163
-31 -401 -31 -556 0 -288 57 -520 176 -696 359 -75 78 -159 186 -159 204 0 3
46 9 103 12 178 10 308 63 397 164 l45 50 28 -70 c15 -38 47 -100 71 -136z"/>
<path d="M110 1085 c0 -18 48 -94 83 -133 46 -50 105 -81 153 -82 49 0 148 55
199 112 53 59 50 79 -6 38 -120 -86 -252 -76 -372 30 -43 38 -57 47 -57 35z"/>
</g>
</svg>
