<svg xmlns="http://www.w3.org/2000/svg" xmlns:xlink="http://www.w3.org/1999/xlink" viewBox="0 0 3072.16 1730.18"><defs><style>.cls-1,.cls-40,.cls-55,.cls-60{fill:none;}.cls-2{clip-path:url(#clip-path);}.cls-3{fill:#3a3377;}.cls-4{fill:url(#linear-gradient);}.cls-5{fill:url(#radial-gradient);}.cls-6,.cls-7{fill:#08b078;}.cls-22,.cls-6{opacity:0.63;}.cls-19,.cls-20,.cls-59,.cls-8{fill:#0180c3;}.cls-8{opacity:0.07;}.cls-17,.cls-25,.cls-38,.cls-45,.cls-58,.cls-63,.cls-9{fill:#fff;}.cls-9{opacity:0.15;}.cls-10{fill:url(#radial-gradient-2);}.cls-11{fill:url(#radial-gradient-3);}.cls-12{fill:url(#radial-gradient-4);}.cls-13,.cls-15{fill:url(#radial-gradient-5);}.cls-14{fill:#df6184;}.cls-15{opacity:0.38;}.cls-16{fill:#ce4681;opacity:0.2;}.cls-17{opacity:0.1;}.cls-18{fill:url(#radial-gradient-7);}.cls-19{opacity:0.47;}.cls-20{opacity:0.19;}.cls-21{fill:url(#radial-gradient-8);}.cls-22,.cls-47{fill:#d77c32;}.cls-23{fill:#a35923;opacity:0.26;}.cls-24{fill:url(#radial-gradient-9);}.cls-26{fill:url(#radial-gradient-10);}.cls-27{fill:url(#radial-gradient-11);}.cls-28{fill:url(#radial-gradient-12);}.cls-29{fill:url(#radial-gradient-13);}.cls-30{fill:#c5c2ff;}.cls-31{fill:url(#lala);}.cls-32{fill:#ff6d00;}.cls-33{fill:#ff9100;}.cls-34{fill:#ffb600;}.cls-35{fill:url(#radial-gradient-14);}.cls-36{fill:#d18652;opacity:0.54;}.cls-37{fill:#593b26;opacity:0.42;}.cls-38{opacity:0.06;}.cls-39,.cls-44{fill:#ee6f60;}.cls-39,.cls-40,.cls-41,.cls-43,.cls-44,.cls-45,.cls-54,.cls-55,.cls-56,.cls-57,.cls-58,.cls-59,.cls-60,.cls-61,.cls-62,.cls-63{stroke:#000;}.cls-39,.cls-40,.cls-41,.cls-44,.cls-45,.cls-54,.cls-55,.cls-56,.cls-58,.cls-59,.cls-60,.cls-61,.cls-63{stroke-miterlimit:10;}.cls-39,.cls-40,.cls-41,.cls-43,.cls-45{stroke-width:1.56px;}.cls-41{fill:#ffc9c5;}.cls-42,.cls-43,.cls-57,.cls-62{fill:#fcfeff;}.cls-42{opacity:0.39;}.cls-43,.cls-57,.cls-62{stroke-linejoin:round;}.cls-44{stroke-width:1.23px;}.cls-46{fill:#5e2702;}.cls-48{fill:#7c441a;}.cls-49{fill:#8e3900;}.cls-50{fill:#aa561d;}.cls-51{fill:#262656;}.cls-52{fill:#8b8bcc;}.cls-53{fill:#575496;}.cls-54{fill:#7330a3;}.cls-54,.cls-55,.cls-56,.cls-57,.cls-58{stroke-width:2.54px;}.cls-56{fill:#d6acfc;}.cls-61,.cls-68{fill:#95d7f4;}.cls-64{fill:#b75e91;}.cls-65{fill:#7c1446;}.cls-66{fill:#af3877;}.cls-67{fill:#bc4d92;}.cls-68{font-size:147.18px;font-family:Kanit-SemiBold, Kanit;font-weight:600;}.cls-69{letter-spacing:-0.04em;}.cls-70{letter-spacing:0em;}</style><clipPath id="clip-path"><rect class="cls-1" width="2000" height="2000"/></clipPath><linearGradient id="linear-gradient" x1="2.92" y1="-12094.55" x2="3288.26" y2="-12094.55" gradientTransform="matrix(1, 0, 0, -1, -888.39, -11083.08)" gradientUnits="userSpaceOnUse"><stop offset="0.29" stop-color="#3a3377"/><stop offset="0.58" stop-color="#45428e"/><stop offset="0.87" stop-color="#3a3377"/></linearGradient><radialGradient id="radial-gradient" cx="1153.44" cy="-13097.45" fx="1324.9509115077515" fy="-12782.894972246853" r="373.22" gradientTransform="matrix(1, 0, 0, -1, -888.39, -11083.08)" gradientUnits="userSpaceOnUse"><stop offset="0" stop-color="#8fd8f5"/><stop offset="0.31" stop-color="#8cd6f4"/><stop offset="0.5" stop-color="#84d1f2"/><stop offset="0.66" stop-color="#75c9ed"/><stop offset="0.81" stop-color="#61bce7"/><stop offset="0.94" stop-color="#46ace0"/><stop offset="1" stop-color="#37a3db"/></radialGradient><radialGradient id="radial-gradient-2" cx="3153.44" cy="-11097.45" fx="3324.950911440408" fy="-10782.894972314198" r="373.22" xlink:href="#radial-gradient"/><radialGradient id="radial-gradient-3" cx="3153.44" cy="-13097.45" fx="3324.950911440408" fy="-12782.894972246851" r="373.22" xlink:href="#radial-gradient"/><radialGradient id="radial-gradient-4" cx="1153.44" cy="-11097.45" fy="-10782.8949723142" r="373.22" xlink:href="#radial-gradient"/><radialGradient id="radial-gradient-5" cx="1355.06" cy="-12229.75" fx="1394.1660108060519" fy="-12083.999541109302" r="156.67" gradientTransform="matrix(1, 0, 0, -1, -888.39, -11083.08)" gradientUnits="userSpaceOnUse"><stop offset="0" stop-color="#f1a8be"/><stop offset="0.28" stop-color="#f0a5bc"/><stop offset="0.5" stop-color="#ed9bb6"/><stop offset="0.71" stop-color="#e88aab"/><stop offset="0.91" stop-color="#e0729d"/><stop offset="1" stop-color="#dc6494"/></radialGradient><radialGradient id="radial-gradient-7" cx="2209.01" cy="-11493.64" fx="2179.70706424875" fy="-11390.43004464978" r="123.28" xlink:href="#radial-gradient"/><radialGradient id="radial-gradient-8" cx="2741.81" cy="-12073.37" fx="2803.8384191269497" fy="-11793.644752064018" r="303.1" gradientTransform="matrix(1, 0, 0, -1, -888.39, -11083.08)" gradientUnits="userSpaceOnUse"><stop offset="0" stop-color="#f5c261"/><stop offset="0.28" stop-color="#f3bf5f"/><stop offset="0.51" stop-color="#eeb558"/><stop offset="0.73" stop-color="#e6a44d"/><stop offset="0.93" stop-color="#da8c3e"/><stop offset="1" stop-color="#d58137"/></radialGradient><radialGradient id="radial-gradient-9" cx="741.81" cy="-12073.37" fx="803.8384191942947" fy="-11793.644752064016" r="303.1" xlink:href="#radial-gradient-8"/><radialGradient id="radial-gradient-10" cx="1805.06" cy="-12609.75" fx="1805.061554032778" fy="-12609.75057298192" r="6.67" xlink:href="#radial-gradient-8"/><radialGradient id="radial-gradient-11" cx="2465.06" cy="-11679.75" fx="2465.061554010559" fy="-11679.750573013236" r="6.67" xlink:href="#radial-gradient-8"/><radialGradient id="radial-gradient-12" cx="1675.06" cy="-11616.42" fx="1675.0615540371582" fy="-11616.417239682025" r="6.67" xlink:href="#radial-gradient-8"/><radialGradient id="radial-gradient-13" cx="1091.73" cy="-11826.42" fx="1091.728220723464" fy="-11826.417239674967" r="6.67" xlink:href="#radial-gradient-8"/><pattern id="lala" data-name="lala" width="2000" height="2000" patternTransform="translate(-1759.35 290.63) scale(1.47)" patternUnits="userSpaceOnUse" viewBox="0 0 2000 2000"><rect class="cls-1" width="2000" height="2000"/><g class="cls-2"><rect class="cls-3" width="2000" height="2000"/><path class="cls-4" d="M1733.38,1622.17c263.95-46.37,666.48,44.09,666.48,44.09L2206.67,356.67s-63.34,43.33-303.34,86.66c-127.3,23-341.47,178.67-514.55,319.81C1150.31,957.61,806.29,956.05,572,756.61,418.44,626,297.44,477.29,241.13,403.44a73.06,73.06,0,0,0-83.86-24.17c-44.08,16.61-122.53,40.34-253.94,64.06-240,43.34-788.8,558.34-788.8,558.34s308.8,701.66,568.07,631.66,717.26,32.93,717.26,32.93l1207.88-31A853.29,853.29,0,0,0,1733.38,1622.17Z"/><circle class="cls-5" cx="265.05" cy="2014.36" r="373.22"/><path class="cls-6" d="M337,1848c-23.85-9.58-51.05,1.73-61.65,25.15-18,39.68-46,108.69-40,141.17,8.73,47.09,34.88,33.14,29.47,52s-55.63,7.3-29.47,55.3c23.14,42.45,64,21.37,73.14,15.94,1.28-.77,2.59-1.47,3.93-2.12,9.23-4.41,45.66-23.67,38-49.61-8.72-29.65-1.74-40.12,53.89-71.51s36.8-75-17.26-130.8C368.78,1864.63,351.64,1853.92,337,1848Z"/><path class="cls-6" d="M265.05,1641.14a371.61,371.61,0,0,0-226.42,76.53c25.94,28.71,72.43,68,121.84,51.47,74.93-25.1,46.59-86.14,154.06-57.36,78,20.88,167.6,44,208.81,33.2A371.93,371.93,0,0,0,265.05,1641.14Z"/><path class="cls-6" d="M633.82,1956.69c-27.19,19.92-72.29,57.91-72.29,90.81,0,26.59,34.48,48.17,64.5,61.93a376,376,0,0,0,7.79-152.74Z"/><path class="cls-6" d="M614.26,2146.25c-14.51-22.38-32-37.09-52.73-35-75,7.71-25,33.59-82.26,36.35s-93.89,8-106.1,23.68-9,43.19-40.23,71.3-61.27,64.4-68.07,89.85c-4.21,15.76-3.14,39.38-1.71,55.09l1.89,0C424.73,2387.58,561,2287.28,614.26,2146.25Z"/><path class="cls-7" d="M101.11,2155.63s-36.63,12.2-19.19,41.85,73.25,13.95,73.25,13.95,36.63-15.69,27.91-47.08S101.11,2155.63,101.11,2155.63Z"/><path class="cls-6" d="M110.63,1996.13c-35.68-11.42-13-25.37-2.55-67.23s-13.2-76.11-45.84-84.27-71-76.17-62.28-81.41c1.88-1.12.37-4.12-3.38-8.09a373.16,373.16,0,0,0-18,498.45c-.71-22.7,1.19-43.73,9.16-52.43C8.68,2178.3,68,2155.63,68,2134.7s52.32-27.91,55.81-61S146.31,2007.56,110.63,1996.13Z"/><path class="cls-8" d="M597.37,2184.22c-93.81,183.54-318.65,256.28-502.18,162.47S-161.09,2028-67.28,1844.5h0C18.74,2114.94,304.17,2268,577,2190Z"/><path class="cls-9" d="M537.32,1979.28c-77.88,129.19-172.74,92.36-280.66,28.52S65.94,1868.26,146.48,1748.1c51.45-76.77,172.73-92.36,280.66-28.52S585.05,1900.08,537.32,1979.28Z"/><circle class="cls-10" cx="2265.05" cy="14.36" r="373.22"/><path class="cls-6" d="M2337-152c-23.85-9.58-51.05,1.73-61.65,25.15-17.95,39.68-46,108.69-39.95,141.17,8.73,47.09,34.88,33.14,29.47,52s-55.63,7.3-29.47,55.3c23.14,42.45,64,21.37,73.14,15.94,1.28-.77,2.59-1.47,3.93-2.12,9.23-4.41,45.66-23.67,38-49.61-8.72-29.65-1.74-40.12,53.89-71.51s36.8-75-17.26-130.8C2368.78-135.37,2351.64-146.08,2337-152Z"/><path class="cls-6" d="M2265.05-358.86a371.61,371.61,0,0,0-226.42,76.53c25.94,28.71,72.43,68,121.84,51.47,74.93-25.1,46.59-86.14,154.06-57.36,78,20.88,167.6,44,208.81,33.2A371.93,371.93,0,0,0,2265.05-358.86Z"/><path class="cls-6" d="M2633.82-43.31c-27.19,19.92-72.29,57.91-72.29,90.81,0,26.59,34.48,48.17,64.5,61.93a373.9,373.9,0,0,0,12.23-95.07A375.37,375.37,0,0,0,2633.82-43.31Z"/><path class="cls-6" d="M2614.26,146.25c-14.51-22.38-32-37.09-52.73-35-75,7.71-25,33.59-82.26,36.35s-93.89,8-106.1,23.68-9,43.19-40.23,71.3-61.27,64.4-68.07,89.85c-4.21,15.76-3.14,39.38-1.71,55.09l1.89,0C2424.73,387.58,2561,287.28,2614.26,146.25Z"/><path class="cls-7" d="M2101.11,155.63s-36.63,12.2-19.19,41.85,73.25,14,73.25,14,36.63-15.69,27.91-47.08S2101.11,155.63,2101.11,155.63Z"/><path class="cls-6" d="M2110.63-3.87c-35.68-11.42-13-25.37-2.55-67.23s-13.2-76.11-45.84-84.27-71-76.17-62.28-81.41c1.88-1.12.37-4.12-3.38-8.09A371.93,371.93,0,0,0,1891.83,14.36a371.67,371.67,0,0,0,86.76,239.22c-.71-22.7,1.19-43.73,9.16-52.43,20.93-22.85,80.22-45.52,80.22-66.45s52.32-27.91,55.81-61S2146.31,7.56,2110.63-3.87Z"/><path class="cls-8" d="M2597.37,184.22c-93.81,183.54-318.65,256.28-502.18,162.47S1838.91,28,1932.72-155.5h0C2018.74,114.94,2304.17,268,2577,190Z"/><path class="cls-9" d="M2537.32-20.72c-77.88,129.19-172.74,92.36-280.66,28.52s-190.72-139.54-110.18-259.7c51.45-76.77,172.73-92.36,280.66-28.52S2585.05-99.92,2537.32-20.72Z"/><circle class="cls-11" cx="2265.05" cy="2014.36" r="373.22"/><path class="cls-6" d="M2337,1848c-23.85-9.58-51.05,1.73-61.65,25.15-17.95,39.68-46,108.69-39.95,141.17,8.73,47.09,34.88,33.14,29.47,52s-55.63,7.3-29.47,55.3c23.14,42.45,64,21.37,73.14,15.94,1.28-.77,2.59-1.47,3.93-2.12,9.23-4.41,45.66-23.67,38-49.61-8.72-29.65-1.74-40.12,53.89-71.51s36.8-75-17.26-130.8C2368.78,1864.63,2351.64,1853.92,2337,1848Z"/><path class="cls-6" d="M2265.05,1641.14a371.61,371.61,0,0,0-226.42,76.53c25.94,28.71,72.43,68,121.84,51.47,74.93-25.1,46.59-86.14,154.06-57.36,78,20.88,167.6,44,208.81,33.2A371.93,371.93,0,0,0,2265.05,1641.14Z"/><path class="cls-6" d="M2633.82,1956.69c-27.19,19.92-72.29,57.91-72.29,90.81,0,26.59,34.48,48.17,64.5,61.93a376,376,0,0,0,7.79-152.74Z"/><path class="cls-6" d="M2614.26,2146.25c-14.51-22.38-32-37.09-52.73-35-75,7.71-25,33.59-82.26,36.35s-93.89,8-106.1,23.68-9,43.19-40.23,71.3-61.27,64.4-68.07,89.85c-4.21,15.76-3.14,39.38-1.71,55.09l1.89,0C2424.73,2387.58,2561,2287.28,2614.26,2146.25Z"/><path class="cls-7" d="M2101.11,2155.63s-36.63,12.2-19.19,41.85,73.25,13.95,73.25,13.95,36.63-15.69,27.91-47.08S2101.11,2155.63,2101.11,2155.63Z"/><path class="cls-6" d="M2110.63,1996.13c-35.68-11.42-13-25.37-2.55-67.23s-13.2-76.11-45.84-84.27-71-76.17-62.28-81.41c1.88-1.12.37-4.12-3.38-8.09a373.16,373.16,0,0,0-18,498.45c-.71-22.7,1.19-43.73,9.16-52.43,20.93-22.85,80.22-45.52,80.22-66.45s52.32-27.91,55.81-61S2146.31,2007.56,2110.63,1996.13Z"/><path class="cls-8" d="M2597.37,2184.22c-93.81,183.54-318.65,256.28-502.18,162.47S1838.91,2028,1932.72,1844.5h0c86,270.44,371.45,423.51,644.32,345.53Z"/><path class="cls-9" d="M2537.32,1979.28c-77.88,129.19-172.74,92.36-280.66,28.52s-190.72-139.54-110.18-259.7c51.45-76.77,172.73-92.36,280.66-28.52S2585.05,1900.08,2537.32,1979.28Z"/><circle class="cls-12" cx="265.05" cy="14.36" r="373.22"/><path class="cls-6" d="M337-152c-23.85-9.58-51.05,1.73-61.65,25.15-18,39.68-46,108.69-40,141.17,8.73,47.09,34.88,33.14,29.47,52s-55.63,7.3-29.47,55.3c23.14,42.45,64,21.37,73.14,15.94,1.28-.77,2.59-1.47,3.93-2.12,9.23-4.41,45.66-23.67,38-49.61-8.72-29.65-1.74-40.12,53.89-71.51s36.8-75-17.26-130.8C368.78-135.37,351.64-146.08,337-152Z"/><path class="cls-6" d="M265.05-358.86A371.61,371.61,0,0,0,38.63-282.33c25.94,28.71,72.43,68,121.84,51.47C235.4-256,207.06-317,314.53-288.22c78,20.88,167.6,44,208.81,33.2A371.93,371.93,0,0,0,265.05-358.86Z"/><path class="cls-6" d="M633.82-43.31C606.63-23.39,561.53,14.6,561.53,47.5c0,26.59,34.48,48.17,64.5,61.93a373.9,373.9,0,0,0,12.23-95.07A375.37,375.37,0,0,0,633.82-43.31Z"/><path class="cls-6" d="M614.26,146.25c-14.51-22.38-32-37.09-52.73-35-75,7.71-25,33.59-82.26,36.35s-93.89,8-106.1,23.68-9,43.19-40.23,71.3-61.27,64.4-68.07,89.85c-4.21,15.76-3.14,39.38-1.71,55.09l1.89,0C424.73,387.58,561,287.28,614.26,146.25Z"/><path class="cls-7" d="M101.11,155.63s-36.63,12.2-19.19,41.85,73.25,14,73.25,14,36.63-15.69,27.91-47.08S101.11,155.63,101.11,155.63Z"/><path class="cls-6" d="M110.63-3.87C75-15.29,97.62-29.24,108.08-71.1s-13.2-76.11-45.84-84.27S-8.76-231.54,0-236.78c1.88-1.12.37-4.12-3.38-8.09A371.93,371.93,0,0,0-108.17,14.36,371.67,371.67,0,0,0-21.41,253.58c-.71-22.7,1.19-43.73,9.16-52.43C8.68,178.3,68,155.63,68,134.7s52.32-27.91,55.81-61S146.31,7.56,110.63-3.87Z"/><path class="cls-8" d="M597.37,184.22C503.56,367.76,278.72,440.5,95.19,346.69S-161.09,28-67.28-155.5h0C18.74,114.94,304.17,268,577,190Z"/><path class="cls-9" d="M537.32-20.72C459.44,108.47,364.58,71.64,256.66,7.8S65.94-131.74,146.48-251.9c51.45-76.77,172.73-92.36,280.66-28.52S585.05-99.92,537.32-20.72Z"/><circle class="cls-13" cx="466.67" cy="1146.67" r="156.67"/><path class="cls-14" d="M415,1123.25s18.58-34.73,14.54-45.23S419,1046.53,394,1049.76s-36.83,26.31-35.78,36.58-5.41,36.1,14.78,44.18S415,1123.25,415,1123.25Z"/><path class="cls-14" d="M469.9,1031.19s24.22-1.62,25.84,4.84-3.23,17.77-4,20.19-17,13.42-25,9.13S469.9,1031.19,469.9,1031.19Z"/><path class="cls-14" d="M529.66,1076.41c-25.52,8-37.08,55-19.38,83.18,7.36,11.71,22.83,25,41.18,23.42,24-2.06,41.4-28.62,41.19-51.69C592.34,1097.55,554.37,1068.68,529.66,1076.41Z"/><path class="cls-14" d="M455.52,1164.46a6.76,6.76,0,0,0-5.72-.74c-6.61,2.15-21,8.21-17.15,19.41,3.5,10.22,17.68,12.79,25.63,13.42a6.76,6.76,0,0,0,7-4.78l.14-.44a23.63,23.63,0,0,0-9.9-26.87Z"/><path class="cls-14" d="M449.23,1230.9s36.82-42.24,82-23.67,19.26,60.57,19.26,60.57-65.43,33.46-101.3,14.31S449.23,1230.9,449.23,1230.9Z"/><path class="cls-14" d="M370.57,1170.89s-20.47-11.05-21.14,12.24S363.3,1229,381.07,1229c.37,0,.73,0,1.1,0,18.91-.92,26.71-24.87,12.41-37.28Z"/><circle class="cls-15" cx="466.67" cy="1146.67" r="156.67"/><path class="cls-16" d="M310,1146.67a156.69,156.69,0,0,0,296.29,71.12l-9.8,4.21A240.82,240.82,0,0,1,310,1146.67Z"/><path class="cls-17" d="M566.74,1059.39c-2.36,48.51-40.92,52.37-88.83,50.51s-89.58-10.88-84.67-57.23c3.14-29.61,40.93-52.37,88.84-50.52S568.18,1029.64,566.74,1059.39Z"/><circle class="cls-18" cx="1320.62" cy="410.56" r="123.28"/><path class="cls-19" d="M1282,422.79c-33.61,9.17-49.93,40.95-57.6,64.87A123.63,123.63,0,0,0,1270,523c-2.58-21.11-3.44-48.47,7.34-57.85C1328.14,420.91,1302.74,417.15,1282,422.79Z"/><path class="cls-19" d="M1374.26,391.74c-29.18-11.29-39.53-41.41-133.63-6.59-19.17,7.09-33.14,14.46-43.23,21.7,0,1.23-.06,2.47-.06,3.71a123.18,123.18,0,0,0,6.64,40c12.43-15,38.22-40.68,72.41-46.6,48.93-8.47,46.11,3.77,65.87,12.24S1403.43,403,1374.26,391.74Z"/><path class="cls-19" d="M1442.27,430.54c-35.34-2.34-106.55-3.68-108.48,23.31-.94,13.17,52.7-12.23,43.29,24.47-3,11.73-12.65,25.84-12.3,47.36A123.44,123.44,0,0,0,1442.27,430.54Z"/><path class="cls-19" d="M1320.62,469.85c-15.25-3.72-24.18,33.82-28.57,60.65a123.36,123.36,0,0,0,28.57,3.34h.31C1319.47,500.88,1350.2,477.06,1320.62,469.85Z"/><path class="cls-19" d="M1441.92,388.48a122.76,122.76,0,0,0-23.83-53.39c-4.62-1.61-9.5-3.13-14.66-4.52-83.76-22.58-120.46,0-120.46,0s-46.21,38.76,28.24,21.65C1358,341.47,1407.78,365.71,1441.92,388.48Z"/><path class="cls-19" d="M1316.73,287.35a123.34,123.34,0,0,0-116.27,95.52C1229.42,360.69,1284.44,317.74,1316.73,287.35Z"/><path class="cls-20" d="M1429.67,353.08a123.28,123.28,0,1,1-218.11,115l10.83,2.94a169.15,169.15,0,0,0,207.28-117.9Z"/><path class="cls-9" d="M1363.17,325.93c22.33,45.06-5,65.11-42.35,84s-73.43,28.54-92.74-15.65c-12.34-28.23,5-65.11,42.35-84S1349.49,298.3,1363.17,325.93Z"/><circle class="cls-21" cx="1853.41" cy="990.28" r="303.1"/><path class="cls-22" d="M1644.53,1209.92a304.35,304.35,0,0,0,67.15,48.36l35.42,1.82a56.92,56.92,0,0,0,45.49-19.08l9.61-10.84a44.32,44.32,0,0,1,49.74-11.7l25.07,10.1a113,113,0,0,0,89.75-2.26h0a74,74,0,0,1,51.49-4l22.33,6.39a304.58,304.58,0,0,0,50.5-50.3l-77.93-9.35a74,74,0,0,0-34.32,4l-32.5,11.93a113,113,0,0,1-58.92,5.14l-44-7.9a44.32,44.32,0,0,0-37.06,10.3L1779,1216.48a56.89,56.89,0,0,1-50.18,12.7Z"/><path class="cls-22" d="M1590.59,1141.36a301.24,301.24,0,0,1-38.53-118.29l146,35.33a140.38,140.38,0,0,0,72.78-1.83l48.32-14.29a261.34,261.34,0,0,1,60-10.36l77.29,20.46a169.81,169.81,0,0,0,76.62,2.4l120.71-24a301.3,301.3,0,0,1-37.47,110.36l-129.85,1.5-117.46-11.25a114,114,0,0,0-63,12.12l-26,13.39a140.27,140.27,0,0,1-104.19,9.78Z"/><path class="cls-22" d="M1555.27,935.37a301.17,301.17,0,0,1,11.43-43.65l48.09,1.54a141.38,141.38,0,0,1,35.26,5.64l38.56,11.32a141,141,0,0,0,54.74,4.92l66.94-7.14a141.38,141.38,0,0,1,50.3,3.7l87.24,22.54a141.18,141.18,0,0,0,61.79,2l136.22-26a301.85,301.85,0,0,1,7.95,39.19l-151.12,20a141.09,141.09,0,0,1-48-1.89l-99-21.13a141.06,141.06,0,0,0-40.16-2.71l-79.67,6a141.08,141.08,0,0,1-52.38-5.89l-30.74-9.5A141.24,141.24,0,0,0,1588,930Z"/><path class="cls-22" d="M1576.53,866.78A302.93,302.93,0,0,1,1616,801.84l17.16-5.46a91.15,91.15,0,0,1,69.25,5.82h0a64.34,64.34,0,0,0,47.24,4.6l28.9-8.34a129.14,129.14,0,0,1,60.56-2.66l95.4,18.64a93.52,93.52,0,0,0,27.23,1.27l129.78-13a302.85,302.85,0,0,1,44.34,77.38s-125.28,38-187.83,9.17-110.65-33.68-137.92-25.66-64.14,28.87-93,25.66-52.92-32.08-72.17-28.87S1576.53,866.78,1576.53,866.78Z"/><path class="cls-23" d="M2156.67,990.81c0,167.39-135.71,303.1-303.11,303.1s-303.1-135.71-303.1-303.11l21.36,18.93c169.11,149.84,425.79,141.53,584.85-18.92Z"/><path class="cls-9" d="M2028.7,829.84c-4.68,96.35-81.27,104-176.41,100.32s-177.88-21.61-168.13-113.66c6.23-58.8,81.27-104,176.41-100.32S2031.57,770.78,2028.7,829.84Z"/><circle class="cls-24" cx="-146.59" cy="990.28" r="303.1"/><path class="cls-22" d="M-355.47,1209.92a304.35,304.35,0,0,0,67.15,48.36l35.42,1.82A56.92,56.92,0,0,0-207.41,1241l9.61-10.84a44.32,44.32,0,0,1,49.74-11.7l25.07,10.1a113,113,0,0,0,89.75-2.26h0a74,74,0,0,1,51.49-4l22.33,6.39a304.58,304.58,0,0,0,50.5-50.3l-77.93-9.35a74,74,0,0,0-34.32,4L-53.67,1185a113,113,0,0,1-58.92,5.14l-44-7.9a44.32,44.32,0,0,0-37.06,10.3L-221,1216.48a56.89,56.89,0,0,1-50.18,12.7Z"/><path class="cls-22" d="M-409.41,1141.36a301.24,301.24,0,0,1-38.53-118.29l146,35.33a140.38,140.38,0,0,0,72.78-1.83l48.32-14.29a261.34,261.34,0,0,1,60-10.36l77.29,20.46a169.81,169.81,0,0,0,76.62,2.4l120.71-24a301.3,301.3,0,0,1-37.47,110.36l-129.85,1.5-117.46-11.25a114,114,0,0,0-63,12.12l-26,13.39a140.27,140.27,0,0,1-104.19,9.78Z"/><path class="cls-22" d="M-444.73,935.37a301.17,301.17,0,0,1,11.43-43.65l48.09,1.54a141.38,141.38,0,0,1,35.26,5.64l38.56,11.32a141,141,0,0,0,54.74,4.92l66.94-7.14a141.38,141.38,0,0,1,50.3,3.7l87.24,22.54a141.18,141.18,0,0,0,61.79,2l136.22-26a301.85,301.85,0,0,1,7.95,39.19l-151.12,20a141.09,141.09,0,0,1-48-1.89l-99-21.13a141.06,141.06,0,0,0-40.16-2.71l-79.67,6a141.08,141.08,0,0,1-52.38-5.89l-30.74-9.5A141.24,141.24,0,0,0-412,930Z"/><path class="cls-22" d="M-423.47,866.78A302.93,302.93,0,0,1-384,801.84l17.16-5.46a91.15,91.15,0,0,1,69.25,5.82h0a64.34,64.34,0,0,0,47.24,4.6l28.9-8.34a129.14,129.14,0,0,1,60.56-2.66l95.4,18.64a93.52,93.52,0,0,0,27.23,1.27l129.78-13a302.85,302.85,0,0,1,44.34,77.38S10.58,918.11-52,889.25s-110.65-33.68-137.92-25.66-64.14,28.87-93,25.66-52.92-32.08-72.17-28.87S-423.47,866.78-423.47,866.78Z"/><path class="cls-23" d="M156.67,990.81c0,167.39-135.71,303.1-303.11,303.1s-303.1-135.71-303.1-303.11l21.36,18.93c169.11,149.84,425.79,141.53,584.85-18.92Z"/><path class="cls-9" d="M28.7,829.84c-4.68,96.35-81.27,104-176.41,100.32S-325.59,908.55-315.84,816.5c6.23-58.8,81.27-104,176.41-100.32S31.57,770.78,28.7,829.84Z"/><circle class="cls-25" cx="976.67" cy="146.67" r="6.67"/><circle class="cls-25" cx="1263.33" cy="813.33" r="6.67"/><circle class="cls-25" cx="590" cy="843.33" r="6.67"/><circle class="cls-25" cx="930" cy="1090" r="6.67"/><circle class="cls-25" cx="1563.33" cy="1556.67" r="6.67"/><circle class="cls-25" cx="1256.67" cy="1640" r="6.67"/><circle class="cls-26" cx="916.67" cy="1526.67" r="6.67"/><circle class="cls-27" cx="1576.67" cy="596.67" r="6.67"/><circle class="cls-28" cx="786.67" cy="533.33" r="6.67"/><circle class="cls-29" cx="203.33" cy="743.33" r="6.67"/><circle class="cls-25" cx="880" cy="1873.33" r="6.67"/><circle class="cls-25" cx="486.67" cy="1556.67" r="6.67"/><circle class="cls-25" cx="1770" cy="376.67" r="6.67"/><path class="cls-30" d="M512.47,563.09l-26,9.94a14.19,14.19,0,0,0-8.58,9.36l-7.66,26.75-9.93-26a14.22,14.22,0,0,0-9.37-8.59l-26.74-7.65,26-9.94a14.18,14.18,0,0,0,8.59-9.36l7.66-26.75,9.93,26a14.2,14.2,0,0,0,9.36,8.59Z"/><path class="cls-30" d="M1268.32,1157l-27.61,3.45a14.18,14.18,0,0,0-10.57,7l-13.82,24.15-3.45-27.61a14.2,14.2,0,0,0-7-10.57l-24.15-13.82,27.61-3.44a14.22,14.22,0,0,0,10.57-7l13.82-24.14,3.45,27.6a14.2,14.2,0,0,0,7,10.58Z"/><path class="cls-30" d="M1661.65,1847l-27.61,3.45a14.2,14.2,0,0,0-10.57,7l-13.82,24.15-3.44-27.61a14.24,14.24,0,0,0-7-10.57L1575,1829.65l27.6-3.44a14.24,14.24,0,0,0,10.58-7L1627,1795l3.45,27.6a14.2,14.2,0,0,0,7,10.58Z"/></g></pattern><radialGradient id="radial-gradient-14" cx="1712.41" cy="1197.45" fy="1073.109736581017" r="124.4" gradientTransform="translate(1125.41 -1089.08) rotate(45)" gradientUnits="userSpaceOnUse"><stop offset="0" stop-color="#bc703c"/><stop offset="1" stop-color="#a3602e"/></radialGradient></defs><g id="Layer_2" data-name="Layer 2"><g id="Layer_1-2" data-name="Layer 1"><rect class="cls-31" width="3072.16" height="1730.18"/><path class="cls-32" d="M1861.1,572.36c59.87-66.29,79.12-141.14,79.12-141.14-26.73,28.87-58.81,46-58.81,46,4.28-4.28,12.64-32.27,12.64-32.27s-34,13-123.84,105S1668.72,665,1668.72,665l47-86.18s-36.35,21.38-131.42,153.38-106.1,106-108.87,108.86c-120.54,125.38,23.24,224.25,67.77,200.62S1751,810.8,1806.57,768c0,0-20.32,7.48-30.69,13.34,0,0,62.76-165.17,147.23-230.39Z"/><path class="cls-33" d="M1499.7,848.22S1615.17,737,1637.63,691.05l-20.47,55.75s193.9-234.23,221.06-246l-7.76,32.73s30.64-10.32,43.47-29.57c0,0-25.35,63.08-36.73,83.4,0,0,23,3.07,36.3-7,0,0-108.63,148.16-121.46,201.62l11.75-2.45L1561.23,993.43l-96.82-109.92Z"/><path class="cls-34" d="M1518.38,868.64s49.77-29.08,81.84-72.87L1597,817.21s46.21-31.2,72.29-77.61l-5.82,34.67,50-29.7S1650,882.72,1593,924.28,1518.38,868.64,1518.38,868.64Z"/><path class="cls-35" d="M1575.61,1054.58c-16.13,16.13-55.38,16.82-75.91,22.46-42.6,11.7-70.24,11-103.72-22.46-34.63-34.64-30.84-71.77-17.1-115.47,5.93-18.89,16-48.12,31-63.09,24.5-24.5,42.74-18.94,74.85-19.24,32.9-.31,65.78-6.93,90.88,18.17,35.69,35.69,28.5,75.12,12.83,119.76C1582.34,1012.11,1589.53,1040.67,1575.61,1054.58Z"/><path class="cls-36" d="M1434.48,913.44s21.37-.72,27.25,7.66-10,4-12.29,20.14-16.33,12.46-19.92,15.85-20.94-15.1-22.43-22.42S1434.48,913.44,1434.48,913.44Z"/><path class="cls-36" d="M1433.41,1000.05s21.37-.72,27.25,7.66.81,9.2-1.46,25.36-27.16,7.23-30.75,10.63-20.94-15.1-22.43-22.43S1433.41,1000.05,1433.41,1000.05Z"/><path class="cls-36" d="M1509.32,977.6s29.92,3.55,35.81,11.93,7.09,8.26,4.82,24.42-19.93,3-23.52,6.42-34.45-10-35.94-17.27S1509.32,977.6,1509.32,977.6Z"/><path class="cls-36" d="M1473.64,890.32s24.92-17,38.24-11.39,7.89,10.35,17.35,31.32-26.91,29-28.64,35.81-20.34-14.32-27.62-21.92S1473.64,890.32,1473.64,890.32Z"/><path class="cls-36" d="M1600.07,919.74s-19.86-13.49-27.5-5.62,4.11,11.09,5.18,22.85S1598,962.35,1598,962.35A169,169,0,0,0,1600.07,919.74Z"/><path class="cls-37" d="M1409.88,876c-15,15-25.07,44.2-31,63.09-13.74,43.7-17.53,80.83,17.1,115.47,33.48,33.48,61.12,34.16,103.72,22.46,20.53-5.64,59.78-6.33,75.91-22.46l-45.72-2.61a152.13,152.13,0,0,1-122-135.09Z"/><path class="cls-38" d="M1576.8,965.14c-32,19-48.37-.24-64.5-26.89s-25.41-52.92,6.08-69.61c20.11-10.67,48.36.24,64.5,26.88S1596.39,953.5,1576.8,965.14Z"/><path class="cls-39" d="M1074.17,623.61s-35.94-1.57-39.07,10.94-1.56,56.26-1.56,56.26-1.57,7.81,15.62,12.5,29.7-17.19,29.7-17.19Z"/><path class="cls-40" d="M1071.83,633.77s-20.32-3.13-36.73.78"/><path class="cls-41" d="M1128.17,651.84s2,15.19,8.9,25.72c0,0,10.18-4.09,12.39,4s-5.72,2.8-5.72,2.8,8.59,10.13,1.55,17.07-19.67,2.49-23.4-8.64-26.2-44.48-1.9-71.22"/><polygon class="cls-41" points="1120.27 622.83 1122.54 707.48 1062.45 710.34 1060.4 670.65 1068.7 627.51 1120.27 622.83"/><path class="cls-41" d="M1118.71,624.39s25,35.94,1.56,101.58c0,0,17.19-1.56,12.5,12.5-3.29,9.89-21.26,9-31.64,7.54a8.24,8.24,0,0,1-7.12-8.53l2.82-30.26"/><path class="cls-41" d="M1060.1,701.75v39.67a5.23,5.23,0,0,0,5.37,5.47c5.57.18,25.8,0,25.8,0s9.47-1.38,9.47-7.64-1.57-10.94-9.38-10.94l1.56-20.31"/><path class="cls-39" d="M1059.32,674.4s29.07,7.38,70.79.56v-6.81c-26.1,6.25-67.66,0-67.66,0"/><path class="cls-41" d="M1068.7,658.77s-7,11.72-5.47,24.22c0,0,10.94.82,9.38,9s-6.37,0-6.37,0,3.24,12.87-6.14,16-18.75-6.44-17.19-18.07-3.9-51.48,29.7-64.76"/><path class="cls-39" d="M1133.93,608.3c1.37,11.14-2,15.48-12.58,19.31-9.09,3.3-18.92,5.37-26.86,5.37-28.49,0-51.58-18.4-51.58-46.88a51.57,51.57,0,0,1,51.58-51.57c6.81,0,15.86,1.73,24.37,4.43,10.43,3.31,14.7,11.2,13.36,23.79Z"/><path d="M1149.18,590.79c0,22.44-16.63,31.25-39.07,31.25-20.31,0-40.63-4.68-40.63-37.5,0-22.44,19.76-37.51,42.2-37.51C1139.81,547,1149.18,568.35,1149.18,590.79Z"/><path class="cls-41" d="M1072.61,592.35c-.78,13.29-13.76,15.63-21.1,15.63s-13.28-7-13.28-15.63,5.94-15.63,13.28-15.63S1071.83,575.94,1072.61,592.35Z"/><ellipse class="cls-40" cx="1051.51" cy="592.35" rx="13.28" ry="15.63"/><path class="cls-42" d="M1099.17,565.78s6.26-6.25,17.19-3.12,9.38-10.12,0-11.31-14.06.37-21.87,3.49S1091.36,568.91,1099.17,565.78Z"/><path class="cls-42" d="M1082.67,580.16a4.71,4.71,0,0,1-6.84-3.4c-.53-3-.32-6.9,3-9.41,6.25-4.69,10.94-1.57,10.94,0C1089.8,568.61,1088.78,577,1082.67,580.16Z"/><line class="cls-43" x1="1085.77" y1="708.6" x2="1103.08" y2="707.22"/><rect class="cls-44" x="1088.77" y="661.9" width="33.31" height="23.44" rx="7.01"/><path class="cls-45" d="M1076.51,733.78s6.25-6.25,14.85-5.47"/><path class="cls-45" d="M1108.21,731a16.45,16.45,0,0,1,12.06-5"/><path class="cls-40" d="M1082.07,557.45s-8.08-7.62-23.62-8.24"/><path d="M1042.44,597.16c3,3.37,9.37,8.31,17.31,1.73a.37.37,0,0,1,.54.5c-3.75,4.75-11.69,11.87-18.44-1.81A.36.36,0,0,1,1042.44,597.16Z"/><path class="cls-39" d="M1060.37,717.38s21.19,5.55,32-1.52l-.48,6.15s-13.76,5.06-31.74,1.39Z"/><path class="cls-39" d="M1124.4,713s-7.3,6.81-28.38,2.86l-.53,5.68s22.32-.7,27.46-3.6Z"/><polygon class="cls-46" points="1030.29 784.34 1099.6 801.85 1106.45 790.43 1046.28 769.1 1030.29 784.34"/><polygon class="cls-47" points="1148.34 804.9 1157.48 801.85 1169.09 814.42 1193.28 768.34 1170.81 760.22 1166.62 747.02 1149.86 747.02 1139.58 796.61 1148.34 804.9"/><polygon class="cls-48" points="1134.25 814.42 1146.62 799.24 1151.01 793.86 1149.86 747.02 1140.34 771.77 1132.73 772.53 1128.16 796.14 1130.2 799.03 1134.25 814.42"/><polygon class="cls-47" points="1021.91 759.96 1030.29 787.38 1044 779 1069.13 781.29 1075.99 761.49 1063.19 747.02 1021.1 747.02 1021.91 759.96"/><polygon class="cls-49" points="1213.28 747.02 1166.62 747.02 1169.66 761.49 1191.75 769.1 1206.98 762.25 1213.28 747.02"/><polygon class="cls-50" points="1089.7 751.59 1089.7 775.27 1102.64 789.67 1107.97 793.48 1128.16 797.65 1155.42 747.02 1089.7 747.02 1089.7 751.59"/><polygon class="cls-49" points="1046.28 750.06 1061.52 781.29 1076.06 785.48 1099.6 801.85 1108.74 790.43 1101.34 747.02 1046.28 747.02 1046.28 750.06"/><polygon class="cls-46" points="992.97 749.3 1002.11 767.58 1023.37 776.15 1035.62 773.67 1033.55 747.02 992.43 747.02 992.97 749.3"/><polygon class="cls-49" points="1014.02 767.2 998.3 779.77 980.02 775.96 969.36 747.02 997.71 747.02 1014.02 767.2"/><rect class="cls-46" x="967.84" y="743.97" width="246" height="4.57"/><polygon class="cls-51" points="1695.1 1497.85 1756.07 1496.55 1824.82 1488.77 1788.5 1452.44 1718.45 1453.74 1695.1 1497.85"/><polygon class="cls-52" points="1883.2 1496.55 1907.84 1505.63 1926.01 1466.71 1968.81 1448.55 1930.55 1434.72 1923.41 1412.23 1894.87 1412.23 1878.01 1473.2 1883.2 1496.55"/><polygon class="cls-51" points="1872.82 1488.77 1889.35 1501.17 1896.82 1492.01 1894.87 1412.23 1878.66 1454.39 1865.68 1455.69 1857.9 1495.9 1861.38 1500.82 1872.82 1488.77"/><polygon class="cls-53" points="1676.94 1434.28 1695.1 1497.85 1714.56 1466.71 1757.37 1470.61 1769.04 1436.88 1747.25 1412.23 1675.56 1412.23 1676.94 1434.28"/><polygon class="cls-53" points="2002.89 1412.23 1923.41 1412.23 1928.6 1436.88 1966.22 1449.85 1992.16 1438.17 2002.89 1412.23"/><polygon class="cls-53" points="1792.39 1420.01 1792.39 1460.36 1814.44 1482.28 1823.53 1491.36 1857.9 1498.47 1904.35 1412.23 1792.39 1412.23 1792.39 1420.01"/><polygon class="cls-3" points="1718.45 1417.42 1744.39 1470.61 1769.17 1477.74 1792.39 1465.42 1820.93 1488.77 1812.23 1412.23 1718.45 1412.23 1718.45 1417.42"/><polygon class="cls-51" points="1615.97 1413.53 1643.21 1486.17 1686.02 1465.42 1688.62 1455.04 1685.09 1409.64 1615.04 1409.64 1615.97 1413.53"/><polygon class="cls-53" points="1663.5 1446.61 1636.73 1468.01 1605.59 1461.53 1587.43 1412.23 1635.71 1412.23 1663.5 1446.61"/><rect class="cls-51" x="1584.84" y="1407.04" width="419" height="7.78"/><path class="cls-54" d="M1823.45,1206.64s58.38-2.54,63.46,17.76,2.53,91.38,2.53,91.38,2.54,12.69-25.38,20.31-48.22-27.92-48.22-27.92Z"/><path class="cls-55" d="M1827.26,1223.14s33-5.08,59.65,1.26"/><path class="cls-56" d="M1735.74,1252.49s-3.22,24.67-14.45,41.77c0,0-16.54-6.64-20.12,6.41s9.28,4.56,9.28,4.56-13.94,16.45-2.51,27.72,32,4,38-14,42.55-72.25,3.08-115.68"/><polygon class="cls-56" points="1748.57 1205.37 1744.89 1342.86 1842.49 1347.51 1845.81 1283.05 1832.33 1212.98 1748.57 1205.37"/><path class="cls-56" d="M1751.11,1207.91s-40.61,58.38-2.54,165c0,0-27.92-2.54-20.3,20.31,5.35,16.06,34.53,14.56,51.39,12.25a13.4,13.4,0,0,0,11.57-13.86l-4.58-49.16"/><path class="cls-56" d="M1846.29,1333.55V1398s.35,8.6-8.7,8.89-41.92,0-41.92,0-15.37-2.25-15.37-12.4,2.54-17.77,15.23-17.77l-2.54-33"/><path class="cls-54" d="M1847.56,1289.13s-47.2,12-115,.92V1279c42.39,10.15,109.9,0,109.9,0"/><path class="cls-56" d="M1832.33,1263.75s11.43,19,8.89,39.34c0,0-17.77,1.33-15.23,14.62s10.34,0,10.34,0-5.27,20.92,10,26,30.46-10.45,27.93-29.34,6.34-83.61-48.23-105.19"/><path class="cls-54" d="M1726.39,1181.77c-2.22,18.09,3.29,25.15,20.43,31.36,14.77,5.36,30.73,8.74,43.63,8.74,46.26,0,83.77-29.89,83.77-76.15a83.77,83.77,0,0,0-83.77-83.76c-11.07,0-25.76,2.81-39.58,7.2-16.94,5.37-23.87,18.18-21.71,38.64Z"/><path d="M1701.61,1153.33c0,36.45,27,50.77,63.46,50.77,33,0,66-7.62,66-60.92,0-36.45-32.08-60.92-68.53-60.92C1716.84,1082.26,1701.61,1116.89,1701.61,1153.33Z"/><path class="cls-56" d="M1826,1155.87c1.27,21.58,22.35,25.38,34.26,25.38s21.58-11.36,21.58-25.38-9.66-25.38-21.58-25.38S1827.26,1129.22,1826,1155.87Z"/><ellipse class="cls-55" cx="1860.25" cy="1155.87" rx="21.58" ry="25.38"/><path class="cls-42" d="M1782.84,1112.72s-10.16-10.15-27.92-5.08-15.23-16.44,0-18.37,22.84.61,35.53,5.68S1795.53,1117.8,1782.84,1112.72Z"/><path class="cls-42" d="M1809.64,1136.08a7.68,7.68,0,0,0,11.12-5.53c.85-4.94.52-11.21-4.92-15.29-10.16-7.62-17.77-2.54-17.77,0C1798.07,1117.3,1799.71,1130.87,1809.64,1136.08Z"/><line class="cls-57" x1="1804.61" y1="1344.68" x2="1776.49" y2="1342.43"/><rect class="cls-54" x="1745.63" y="1268.82" width="54.1" height="38.07" rx="11.39" transform="translate(3545.37 2575.72) rotate(-180)"/><path class="cls-58" d="M1819.64,1385.58s-10.15-10.15-24.11-8.88"/><path class="cls-58" d="M1768.17,1381.09a26.76,26.76,0,0,0-19.6-8.2"/><path class="cls-55" d="M1810.61,1099.18s13.13-12.37,38.37-13.38"/><path d="M1875,1163.67c-4.88,5.49-15.23,13.51-28.13,2.82a.6.6,0,0,0-.86.82c6.08,7.72,19,19.28,30-3A.6.6,0,0,0,1875,1163.67Z"/><path class="cls-54" d="M1845.86,1358.93s-34.41,9-51.89-2.47l.77,10s22.37,8.22,51.56,2.24Z"/><path class="cls-54" d="M1741.86,1351.83s11.87,11.05,46.09,4.63l.87,9.23s-36.26-1.13-44.6-5.85Z"/><path class="cls-59" d="M1918,452.22s23-1,25,7,1,36,1,36,1,5-10,8-19-11-19-11Z"/><path class="cls-60" d="M1919.51,458.72s13-2,23.5.5"/><path class="cls-61" d="M1883.45,470.29s-1.26,9.72-5.69,16.46c0,0-6.51-2.62-7.92,2.52s3.65,1.8,3.65,1.8-5.49,6.48-1,10.92,12.59,1.59,15-5.53,16.77-28.46,1.22-45.57"/><polygon class="cls-61" points="1888.51 451.72 1887.06 505.89 1925.51 507.72 1926.82 482.33 1921.51 454.72 1888.51 451.72"/><path class="cls-61" d="M1889.51,452.72s-16,23-1,65c0,0-11-1-8,8,2.11,6.33,13.61,5.74,20.25,4.83a5.28,5.28,0,0,0,4.56-5.46l-1.81-19.37"/><path class="cls-61" d="M1927,502.22v25.39a3.34,3.34,0,0,1-3.43,3.5c-3.57.11-16.51,0-16.51,0s-6.06-.89-6.06-4.89,1-7,6-7l-1-13"/><path class="cls-59" d="M1927.51,484.72s-18.6,4.73-45.3.37v-4.37c16.7,4,43.3,0,43.3,0"/><path class="cls-61" d="M1921.51,474.72s4.5,7.5,3.5,15.5c0,0-7,.53-6,5.77s4.07,0,4.07,0-2.07,8.23,3.93,10.23,12-4.12,11-11.56,2.5-32.94-19-41.44"/><path class="cls-59" d="M1879.77,442.43c-.87,7.12,1.3,9.9,8,12.35a53.22,53.22,0,0,0,17.19,3.44c18.23,0,33-11.77,33-30a33,33,0,0,0-33-33,55.54,55.54,0,0,0-15.59,2.84c-6.68,2.12-9.41,7.16-8.56,15.22Z"/><path d="M1870,431.22c0,14.36,10.64,20,25,20,13,0,26-3,26-24,0-14.36-12.64-24-27-24C1876,403.22,1870,416.86,1870,431.22Z"/><path class="cls-61" d="M1919,432.22c.5,8.5,8.81,10,13.5,10s8.5-4.47,8.5-10-3.8-10-8.5-10S1919.51,421.72,1919,432.22Z"/><ellipse class="cls-60" cx="1932.51" cy="432.22" rx="8.5" ry="10"/><path class="cls-42" d="M1902,415.22s-4-4-11-2-6-6.47,0-7.23,9,.23,14,2.23S1907,417.22,1902,415.22Z"/><path class="cls-42" d="M1912.57,424.43a3,3,0,0,0,4.38-2.18c.34-1.95.2-4.42-1.94-6-4-3-7-1-7,0C1908,417,1908.66,422.38,1912.57,424.43Z"/><line class="cls-62" x1="1910.59" y1="506.61" x2="1899.51" y2="505.72"/><rect class="cls-59" x="1887.35" y="476.72" width="21.32" height="15" rx="4.49" transform="translate(3796.02 968.45) rotate(-180)"/><path class="cls-63" d="M1916.51,522.72s-4-4-9.5-3.5"/><path class="cls-63" d="M1896.23,521a10.53,10.53,0,0,0-7.72-3.23"/><path class="cls-60" d="M1913,409.89s5.17-4.87,15.12-5.27"/><path d="M1938.32,435.3c-1.93,2.16-6,5.32-11.09,1.11a.23.23,0,0,0-.33.32c2.39,3,7.47,7.6,11.79-1.16A.23.23,0,0,0,1938.32,435.3Z"/><path class="cls-59" d="M1926.84,512.22s-13.56,3.56-20.44-1l.3,3.94a40.55,40.55,0,0,0,20.31.89Z"/><path class="cls-59" d="M1885.87,509.43s4.67,4.35,18.16,1.82l.34,3.64s-14.29-.45-17.57-2.31Z"/><polygon class="cls-64" points="1849.44 565.6 1875.88 564.93 1911.13 579.16 1900.29 551.37 1863.67 552.04 1849.44 565.6"/><polygon class="cls-64" points="1949.78 574.42 1962.66 579.16 1972.16 558.82 1994.53 549.33 1974.53 542.1 1970.8 530.35 1955.88 530.35 1947.07 562.21 1949.78 574.42"/><polygon class="cls-65" points="1944.36 570.35 1953 576.84 1956.9 572.05 1955.88 530.35 1947.41 552.38 1940.63 553.06 1936.56 574.08 1938.38 576.65 1944.36 570.35"/><polygon class="cls-66" points="1841.98 541.87 1849.44 566.28 1861.64 558.82 1884.02 560.86 1890.12 543.23 1878.73 530.35 1841.26 530.35 1841.98 541.87"/><polygon class="cls-67" points="2012.34 530.35 1970.8 530.35 1973.51 543.23 1993.17 550.01 2006.74 543.91 2012.34 530.35"/><polygon class="cls-66" points="1902.32 534.42 1902.32 555.5 1913.85 568.32 1918.59 571.71 1936.56 575.42 1960.84 530.35 1902.32 530.35 1902.32 534.42"/><polygon class="cls-65" points="1863.67 533.06 1877.23 560.86 1890.18 564.59 1911.13 579.16 1919.27 569 1912.69 530.35 1863.67 530.35 1863.67 533.06"/><polygon class="cls-64" points="1810.11 531.03 1824.35 569 1846.72 558.15 1848.08 552.72 1846.24 528.99 1809.63 528.99 1810.11 531.03"/><polygon class="cls-67" points="1834.95 548.32 1820.96 559.5 1804.69 556.11 1795.19 530.35 1820.43 530.35 1834.95 548.32"/><rect class="cls-65" x="1793.84" y="527.64" width="219" height="4.07"/><text class="cls-68" transform="translate(1249.87 895.77)">Hop<tspan class="cls-69" x="275.37" y="0">z</tspan><tspan class="cls-70" x="341.15" y="0">one</tspan></text></g></g></svg>